<svg xmlns="http://www.w3.org/2000/svg" width="1412" height="1958" viewBox="0 0 1412 1958" role="img"><defs><marker id="a" viewBox="0 0 10 10" refX="9" refY="5" markerWidth="7" markerHeight="7" orient="auto-start-reverse"><path d="M0,0 L10,5 L0,10 z" fill="#1a1d22"/></marker><marker id="ao" viewBox="0 0 10 10" refX="9" refY="5" markerWidth="7" markerHeight="7" orient="auto-start-reverse"><path d="M0,1 L10,5 L0,9" fill="none" stroke="#1a1d22" stroke-width="1.4"/></marker></defs><rect width="1412" height="1958" fill="#ffffff"/><text x="30.0" y="22.0" font-family="DejaVu Sans, Segoe UI, Arial, sans-serif" font-size="14" fill="#1a1d22" text-anchor="start" font-weight="bold">Vývojový diagram běhu — co se děje kdy a kdo to dělá</text><text x="30.0" y="38.0" font-family="DejaVu Sans, Segoe UI, Arial, sans-serif" font-size="9.5" fill="#5c6672" text-anchor="start" font-weight="normal">Sloupce jsou vrstvy schématu. Obdélník = akce, kosočtverec = rozhodnutí, zaoblený tvar = začátek/konec.</text><rect x="166.0" y="56.0" width="270.0" height="1882.0" rx="4" fill="#fafbfc" stroke="#aab3bd" stroke-width="1"/><rect x="166.0" y="56.0" width="270.0" height="40.0" rx="4" fill="#f2f4f7" stroke="#aab3bd" stroke-width="1"/><text x="301.0" y="73.0" font-family="DejaVu Sans, Segoe UI, Arial, sans-serif" font-size="10.5" fill="#1a1d22" text-anchor="middle" font-weight="bold">Vrstva 1 — plánovač (CEO)</text><text x="301.0" y="87.0" font-family="DejaVu Sans, Segoe UI, Arial, sans-serif" font-size="8.5" fill="#5c6672" text-anchor="middle" font-weight="normal">pomalý, volá se jen na startu a při re-plánu</text><rect x="436.0" y="56.0" width="270.0" height="1882.0" rx="4" fill="#ffffff" stroke="#aab3bd" stroke-width="1"/><rect x="436.0" y="56.0" width="270.0" height="40.0" rx="4" fill="#f2f4f7" stroke="#aab3bd" stroke-width="1"/><text x="571.0" y="73.0" font-family="DejaVu Sans, Segoe UI, Arial, sans-serif" font-size="10.5" fill="#1a1d22" text-anchor="middle" font-weight="bold">Orchestrátor</text><text x="571.0" y="87.0" font-family="DejaVu Sans, Segoe UI, Arial, sans-serif" font-size="8.5" fill="#5c6672" text-anchor="middle" font-weight="normal">řídicí logika, fúze důkazů, rozpočty</text><rect x="706.0" y="56.0" width="270.0" height="1882.0" rx="4" fill="#fafbfc" stroke="#aab3bd" stroke-width="1"/><rect x="706.0" y="56.0" width="270.0" height="40.0" rx="4" fill="#f2f4f7" stroke="#aab3bd" stroke-width="1"/><text x="841.0" y="73.0" font-family="DejaVu Sans, Segoe UI, Arial, sans-serif" font-size="10.5" fill="#1a1d22" text-anchor="middle" font-weight="bold">Vrstva 2 — policy kroku + čidla</text><text x="841.0" y="87.0" font-family="DejaVu Sans, Segoe UI, Arial, sans-serif" font-size="8.5" fill="#5c6672" text-anchor="middle" font-weight="normal">rychlá, běží po celou dobu kroku</text><rect x="976.0" y="56.0" width="270.0" height="1882.0" rx="4" fill="#ffffff" stroke="#aab3bd" stroke-width="1"/><rect x="976.0" y="56.0" width="270.0" height="40.0" rx="4" fill="#f2f4f7" stroke="#aab3bd" stroke-width="1"/><text x="1111.0" y="73.0" font-family="DejaVu Sans, Segoe UI, Arial, sans-serif" font-size="10.5" fill="#1a1d22" text-anchor="middle" font-weight="bold">Vrstva 3 — inspektor (VLM)</text><text x="1111.0" y="87.0" font-family="DejaVu Sans, Segoe UI, Arial, sans-serif" font-size="8.5" fill="#5c6672" text-anchor="middle" font-weight="normal">rychlý, volá se po každém kroku</text><line x1="571.0" y1="162.0" x2="571.0" y2="186.0" stroke="#1a1d22" stroke-width="1.2"/><line x1="571.0" y1="186.0" x2="841.0" y2="186.0" stroke="#1a1d22" stroke-width="1.2"/><line x1="841.0" y1="186.0" x2="841.0" y2="208.0" stroke="#1a1d22" stroke-width="1.2" marker-end="url(#a)"/><line x1="841.0" y1="262.0" x2="841.0" y2="286.0" stroke="#1a1d22" stroke-width="1.2"/><line x1="841.0" y1="286.0" x2="301.0" y2="286.0" stroke="#1a1d22" stroke-width="1.2"/><line x1="301.0" y1="286.0" x2="301.0" y2="308.0" stroke="#1a1d22" stroke-width="1.2" marker-end="url(#a)"/><line x1="301.0" y1="362.0" x2="301.0" y2="386.0" stroke="#1a1d22" stroke-width="1.2"/><line x1="301.0" y1="386.0" x2="571.0" y2="386.0" stroke="#1a1d22" stroke-width="1.2"/><line x1="571.0" y1="386.0" x2="571.0" y2="408.0" stroke="#1a1d22" stroke-width="1.2" marker-end="url(#a)"/><line x1="571.0" y1="462.0" x2="571.0" y2="486.0" stroke="#1a1d22" stroke-width="1.2"/><line x1="571.0" y1="486.0" x2="301.0" y2="486.0" stroke="#1a1d22" stroke-width="1.2"/><line x1="301.0" y1="486.0" x2="301.0" y2="508.0" stroke="#1a1d22" stroke-width="1.2" marker-end="url(#a)"/><text x="563.0" y="480.0" font-family="DejaVu Sans, Segoe UI, Arial, sans-serif" font-size="9" fill="#5c6672" text-anchor="end" font-weight="normal">ano — rozpor</text><line x1="301.0" y1="562.0" x2="301.0" y2="586.0" stroke="#1a1d22" stroke-width="1.2"/><line x1="301.0" y1="586.0" x2="571.0" y2="586.0" stroke="#1a1d22" stroke-width="1.2"/><line x1="571.0" y1="586.0" x2="571.0" y2="608.0" stroke="#1a1d22" stroke-width="1.2" marker-end="url(#a)"/><text x="309.0" y="580.0" font-family="DejaVu Sans, Segoe UI, Arial, sans-serif" font-size="9" fill="#5c6672" text-anchor="start" font-weight="normal">plán se stejně spustí</text><line x1="571.0" y1="462.0" x2="571.0" y2="608.0" stroke="#1a1d22" stroke-width="1.2" marker-end="url(#a)"/><text x="579.0" y="538.0" font-family="DejaVu Sans, Segoe UI, Arial, sans-serif" font-size="9" fill="#5c6672" text-anchor="start" font-weight="normal">ne</text><line x1="571.0" y1="662.0" x2="571.0" y2="686.0" stroke="#1a1d22" stroke-width="1.2"/><line x1="571.0" y1="686.0" x2="1111.0" y2="686.0" stroke="#1a1d22" stroke-width="1.2"/><line x1="1111.0" y1="686.0" x2="1111.0" y2="708.0" stroke="#1a1d22" stroke-width="1.2" marker-end="url(#a)"/><text x="579.0" y="680.0" font-family="DejaVu Sans, Segoe UI, Arial, sans-serif" font-size="9" fill="#5c6672" text-anchor="start" font-weight="normal">[&quot;DONE&quot;]</text><line x1="571.0" y1="662.0" x2="571.0" y2="786.0" stroke="#1a1d22" stroke-width="1.2"/><line x1="571.0" y1="786.0" x2="841.0" y2="786.0" stroke="#1a1d22" stroke-width="1.2"/><line x1="841.0" y1="786.0" x2="841.0" y2="808.0" stroke="#1a1d22" stroke-width="1.2" marker-end="url(#a)"/><text x="579.0" y="780.0" font-family="DejaVu Sans, Segoe UI, Arial, sans-serif" font-size="9" fill="#5c6672" text-anchor="start" font-weight="normal">plán kroků</text><line x1="456.0" y1="635.0" x2="154.0" y2="635.0" stroke="#5c6672" stroke-width="1.2"/><line x1="154.0" y1="635.0" x2="154.0" y2="1835.0" stroke="#5c6672" stroke-width="1.2"/><line x1="154.0" y1="1835.0" x2="186.0" y2="1835.0" stroke="#5c6672" stroke-width="1.2" marker-end="url(#a)"/><text x="448.0" y="627.0" font-family="DejaVu Sans, Segoe UI, Arial, sans-serif" font-size="9" fill="#5c6672" text-anchor="end" font-weight="normal">[&quot;ABORT&quot;]</text><line x1="1226.0" y1="735.0" x2="1326.0" y2="735.0" stroke="#5c6672" stroke-width="1.2"/><line x1="1326.0" y1="735.0" x2="1326.0" y2="1835.0" stroke="#5c6672" stroke-width="1.2"/><line x1="1326.0" y1="1835.0" x2="686.0" y2="1835.0" stroke="#5c6672" stroke-width="1.2" marker-end="url(#a)"/><text x="1234.0" y="727.0" font-family="DejaVu Sans, Segoe UI, Arial, sans-serif" font-size="9" fill="#5c6672" text-anchor="start" font-weight="normal">ano (nebo plánovač na DONE trvá)</text><line x1="996.0" y1="735.0" x2="86.0" y2="735.0" stroke="#5c6672" stroke-width="1.2"/><line x1="86.0" y1="735.0" x2="86.0" y2="435.0" stroke="#5c6672" stroke-width="1.2"/><line x1="86.0" y1="435.0" x2="456.0" y2="435.0" stroke="#5c6672" stroke-width="1.2" marker-end="url(#a)"/><text x="988.0" y="727.0" font-family="DejaVu Sans, Segoe UI, Arial, sans-serif" font-size="9" fill="#5c6672" text-anchor="end" font-weight="normal">ne — plánovač DONE odvolá</text><line x1="841.0" y1="862.0" x2="841.0" y2="908.0" stroke="#1a1d22" stroke-width="1.2" marker-end="url(#a)"/><line x1="841.0" y1="962.0" x2="841.0" y2="1008.0" stroke="#1a1d22" stroke-width="1.2" marker-end="url(#a)"/><line x1="841.0" y1="1062.0" x2="841.0" y2="1108.0" stroke="#1a1d22" stroke-width="1.2" marker-end="url(#a)"/><text x="849.0" y="1088.0" font-family="DejaVu Sans, Segoe UI, Arial, sans-serif" font-size="9" fill="#5c6672" text-anchor="start" font-weight="normal">protokol A · protokol B · časový limit</text><line x1="841.0" y1="1162.0" x2="841.0" y2="1186.0" stroke="#1a1d22" stroke-width="1.2"/><line x1="841.0" y1="1186.0" x2="571.0" y2="1186.0" stroke="#1a1d22" stroke-width="1.2"/><line x1="571.0" y1="1186.0" x2="571.0" y2="1208.0" stroke="#1a1d22" stroke-width="1.2" marker-end="url(#a)"/><line x1="571.0" y1="1262.0" x2="571.0" y2="1286.0" stroke="#1a1d22" stroke-width="1.2"/><line x1="571.0" y1="1286.0" x2="1111.0" y2="1286.0" stroke="#1a1d22" stroke-width="1.2"/><line x1="1111.0" y1="1286.0" x2="1111.0" y2="1308.0" stroke="#1a1d22" stroke-width="1.2" marker-end="url(#a)"/><line x1="1111.0" y1="1362.0" x2="1111.0" y2="1386.0" stroke="#1a1d22" stroke-width="1.2"/><line x1="1111.0" y1="1386.0" x2="571.0" y2="1386.0" stroke="#1a1d22" stroke-width="1.2"/><line x1="571.0" y1="1386.0" x2="571.0" y2="1408.0" stroke="#1a1d22" stroke-width="1.2" marker-end="url(#a)"/><line x1="571.0" y1="1462.0" x2="571.0" y2="1508.0" stroke="#1a1d22" stroke-width="1.2" marker-end="url(#a)"/><line x1="571.0" y1="1562.0" x2="571.0" y2="1586.0" stroke="#1a1d22" stroke-width="1.2"/><line x1="571.0" y1="1586.0" x2="841.0" y2="1586.0" stroke="#1a1d22" stroke-width="1.2"/><line x1="841.0" y1="1586.0" x2="841.0" y2="1608.0" stroke="#1a1d22" stroke-width="1.2" marker-end="url(#a)"/><text x="579.0" y="1580.0" font-family="DejaVu Sans, Segoe UI, Arial, sans-serif" font-size="9" fill="#5c6672" text-anchor="start" font-weight="normal">neprůkazné (poprvé)</text><line x1="956.0" y1="1635.0" x2="1292.0" y2="1635.0" stroke="#5c6672" stroke-width="1.2"/><line x1="1292.0" y1="1635.0" x2="1292.0" y2="935.0" stroke="#5c6672" stroke-width="1.2"/><line x1="1292.0" y1="935.0" x2="956.0" y2="935.0" stroke="#5c6672" stroke-width="1.2" marker-end="url(#a)"/><text x="964.0" y="1627.0" font-family="DejaVu Sans, Segoe UI, Arial, sans-serif" font-size="9" fill="#5c6672" text-anchor="start" font-weight="normal">zpět na spuštění kroku</text><line x1="686.0" y1="1535.0" x2="1258.0" y2="1535.0" stroke="#5c6672" stroke-width="1.2"/><line x1="1258.0" y1="1535.0" x2="1258.0" y2="835.0" stroke="#5c6672" stroke-width="1.2"/><line x1="1258.0" y1="835.0" x2="956.0" y2="835.0" stroke="#5c6672" stroke-width="1.2" marker-end="url(#a)"/><text x="694.0" y="1527.0" font-family="DejaVu Sans, Segoe UI, Arial, sans-serif" font-size="9" fill="#5c6672" text-anchor="start" font-weight="normal">úspěch — zbývá krok</text><line x1="571.0" y1="1562.0" x2="571.0" y2="1808.0" stroke="#1a1d22" stroke-width="1.2" marker-end="url(#a)"/><text x="579.0" y="1688.0" font-family="DejaVu Sans, Segoe UI, Arial, sans-serif" font-size="9" fill="#5c6672" text-anchor="start" font-weight="normal">úspěch — plán dojel</text><line x1="571.0" y1="1562.0" x2="571.0" y2="1586.0" stroke="#1a1d22" stroke-width="1.2"/><line x1="571.0" y1="1586.0" x2="301.0" y2="1586.0" stroke="#1a1d22" stroke-width="1.2"/><line x1="301.0" y1="1586.0" x2="301.0" y2="1608.0" stroke="#1a1d22" stroke-width="1.2" marker-end="url(#a)"/><text x="563.0" y="1580.0" font-family="DejaVu Sans, Segoe UI, Arial, sans-serif" font-size="9" fill="#5c6672" text-anchor="end" font-weight="normal">selhání (i druhé neprůkazné v řadě)</text><line x1="301.0" y1="1662.0" x2="301.0" y2="1708.0" stroke="#1a1d22" stroke-width="1.2" marker-end="url(#a)"/><text x="309.0" y="1688.0" font-family="DejaVu Sans, Segoe UI, Arial, sans-serif" font-size="9" fill="#5c6672" text-anchor="start" font-weight="normal">ano</text><line x1="186.0" y1="1635.0" x2="120.0" y2="1635.0" stroke="#5c6672" stroke-width="1.2"/><line x1="120.0" y1="1635.0" x2="120.0" y2="1835.0" stroke="#5c6672" stroke-width="1.2"/><line x1="120.0" y1="1835.0" x2="186.0" y2="1835.0" stroke="#5c6672" stroke-width="1.2" marker-end="url(#a)"/><text x="178.0" y="1627.0" font-family="DejaVu Sans, Segoe UI, Arial, sans-serif" font-size="9" fill="#5c6672" text-anchor="end" font-weight="normal">ne — vyčerpáno</text><line x1="186.0" y1="1735.0" x2="52.0" y2="1735.0" stroke="#5c6672" stroke-width="1.2"/><line x1="52.0" y1="1735.0" x2="52.0" y2="435.0" stroke="#5c6672" stroke-width="1.2"/><line x1="52.0" y1="435.0" x2="456.0" y2="435.0" stroke="#5c6672" stroke-width="1.2" marker-end="url(#a)"/><text x="178.0" y="1727.0" font-family="DejaVu Sans, Segoe UI, Arial, sans-serif" font-size="9" fill="#5c6672" text-anchor="end" font-weight="normal">nový plán projde týmiž kontrolami</text><rect x="456.0" y="108.0" width="230.0" height="54.0" rx="27.0" fill="#f2f4f7" stroke="#1a1d22" stroke-width="1.2"/><text x="571.0" y="139.0" font-family="DejaVu Sans, Segoe UI, Arial, sans-serif" font-size="10" fill="#1a1d22" text-anchor="middle" font-weight="bold">Instrukce od uživatele</text><rect x="726.0" y="208.0" width="230.0" height="54.0" rx="4" fill="#ffffff" stroke="#1a1d22" stroke-width="1.2"/><text x="841.0" y="232.0" font-family="DejaVu Sans, Segoe UI, Arial, sans-serif" font-size="10" fill="#1a1d22" text-anchor="middle" font-weight="normal">Start daemona,</text><text x="841.0" y="246.0" font-family="DejaVu Sans, Segoe UI, Arial, sans-serif" font-size="10" fill="#1a1d22" text-anchor="middle" font-weight="normal">snímek výchozí scény</text><rect x="186.0" y="308.0" width="230.0" height="54.0" rx="4" fill="#ffffff" stroke="#1a1d22" stroke-width="1.2"/><text x="301.0" y="332.0" font-family="DejaVu Sans, Segoe UI, Arial, sans-serif" font-size="10" fill="#1a1d22" text-anchor="middle" font-weight="normal">Naplánuj kroky</text><text x="301.0" y="346.0" font-family="DejaVu Sans, Segoe UI, Arial, sans-serif" font-size="10" fill="#1a1d22" text-anchor="middle" font-weight="normal">z katalogu dovedností</text><polygon points="571.0,408.0 686.0,435.0 571.0,462.0 456.0,435.0" fill="#fdf6e3" stroke="#1a1d22" stroke-width="1.2"/><text x="571.0" y="439.0" font-family="DejaVu Sans, Segoe UI, Arial, sans-serif" font-size="10" fill="#1a1d22" text-anchor="middle" font-weight="normal">Odporuje plán čidlu zátěže?</text><rect x="186.0" y="508.0" width="230.0" height="54.0" rx="4" fill="#ffffff" stroke="#1a1d22" stroke-width="1.2"/><text x="301.0" y="532.0" font-family="DejaVu Sans, Segoe UI, Arial, sans-serif" font-size="10" fill="#1a1d22" text-anchor="middle" font-weight="normal">Jedna cílená výzva</text><text x="301.0" y="546.0" font-family="DejaVu Sans, Segoe UI, Arial, sans-serif" font-size="10" fill="#1a1d22" text-anchor="middle" font-weight="normal">k opravě plánu</text><polygon points="571.0,608.0 686.0,635.0 571.0,662.0 456.0,635.0" fill="#fdf6e3" stroke="#1a1d22" stroke-width="1.2"/><text x="571.0" y="639.0" font-family="DejaVu Sans, Segoe UI, Arial, sans-serif" font-size="10" fill="#1a1d22" text-anchor="middle" font-weight="normal">Co plánovač vrátil?</text><polygon points="1111.0,708.0 1226.0,735.0 1111.0,762.0 996.0,735.0" fill="#fdf6e3" stroke="#1a1d22" stroke-width="1.2"/><text x="1111.0" y="739.0" font-family="DejaVu Sans, Segoe UI, Arial, sans-serif" font-size="10" fill="#1a1d22" text-anchor="middle" font-weight="normal">Vidíš na snímku splněný cíl?</text><rect x="726.0" y="808.0" width="230.0" height="54.0" rx="4" fill="#ffffff" stroke="#1a1d22" stroke-width="1.2"/><text x="841.0" y="832.0" font-family="DejaVu Sans, Segoe UI, Arial, sans-serif" font-size="10" fill="#1a1d22" text-anchor="middle" font-weight="normal">Přepni váhy na model</text><text x="841.0" y="846.0" font-family="DejaVu Sans, Segoe UI, Arial, sans-serif" font-size="10" fill="#1a1d22" text-anchor="middle" font-weight="normal">tohoto kroku (hot-swap)</text><rect x="726.0" y="908.0" width="230.0" height="54.0" rx="4" fill="#ffffff" stroke="#1a1d22" stroke-width="1.2"/><text x="841.0" y="932.0" font-family="DejaVu Sans, Segoe UI, Arial, sans-serif" font-size="10" fill="#1a1d22" text-anchor="middle" font-weight="normal">Spusť krok —</text><text x="841.0" y="946.0" font-family="DejaVu Sans, Segoe UI, Arial, sans-serif" font-size="10" fill="#1a1d22" text-anchor="middle" font-weight="normal">policy řídí robota</text><polygon points="841.0,1008.0 956.0,1035.0 841.0,1062.0 726.0,1035.0" fill="#fdf6e3" stroke="#1a1d22" stroke-width="1.2"/><text x="841.0" y="1039.0" font-family="DejaVu Sans, Segoe UI, Arial, sans-serif" font-size="10" fill="#1a1d22" text-anchor="middle" font-weight="normal">Čím krok skončil?</text><rect x="726.0" y="1108.0" width="230.0" height="54.0" rx="4" fill="#ffffff" stroke="#1a1d22" stroke-width="1.2"/><text x="841.0" y="1139.0" font-family="DejaVu Sans, Segoe UI, Arial, sans-serif" font-size="10" fill="#1a1d22" text-anchor="middle" font-weight="normal">Pořiď snímek scény</text><rect x="456.0" y="1208.0" width="230.0" height="54.0" rx="4" fill="#ffffff" stroke="#1a1d22" stroke-width="1.2"/><text x="571.0" y="1232.0" font-family="DejaVu Sans, Segoe UI, Arial, sans-serif" font-size="10" fill="#1a1d22" text-anchor="middle" font-weight="normal">Fyzický důkaz podle</text><text x="571.0" y="1246.0" font-family="DejaVu Sans, Segoe UI, Arial, sans-serif" font-size="10" fill="#1a1d22" text-anchor="middle" font-weight="normal">typu kroku a důvodu konce</text><rect x="996.0" y="1308.0" width="230.0" height="54.0" rx="4" fill="#ffffff" stroke="#1a1d22" stroke-width="1.2"/><text x="1111.0" y="1332.0" font-family="DejaVu Sans, Segoe UI, Arial, sans-serif" font-size="10" fill="#1a1d22" text-anchor="middle" font-weight="normal">Posuď krok ze snímku</text><text x="1111.0" y="1346.0" font-family="DejaVu Sans, Segoe UI, Arial, sans-serif" font-size="10" fill="#1a1d22" text-anchor="middle" font-weight="normal">(+ dostaneš fyzický důkaz)</text><rect x="456.0" y="1408.0" width="230.0" height="54.0" rx="4" fill="#ffffff" stroke="#1a1d22" stroke-width="1.2"/><text x="571.0" y="1439.0" font-family="DejaVu Sans, Segoe UI, Arial, sans-serif" font-size="10" fill="#1a1d22" text-anchor="middle" font-weight="normal">Fúze obou důkazů</text><polygon points="571.0,1508.0 686.0,1535.0 571.0,1562.0 456.0,1535.0" fill="#fdf6e3" stroke="#1a1d22" stroke-width="1.2"/><text x="571.0" y="1539.0" font-family="DejaVu Sans, Segoe UI, Arial, sans-serif" font-size="10" fill="#1a1d22" text-anchor="middle" font-weight="normal">Výsledek kroku?</text><polygon points="301.0,1608.0 416.0,1635.0 301.0,1662.0 186.0,1635.0" fill="#fdf6e3" stroke="#1a1d22" stroke-width="1.2"/><text x="301.0" y="1639.0" font-family="DejaVu Sans, Segoe UI, Arial, sans-serif" font-size="10" fill="#1a1d22" text-anchor="middle" font-weight="normal">Zbývá rozpočet re-plánů?</text><rect x="726.0" y="1608.0" width="230.0" height="54.0" rx="4" fill="#ffffff" stroke="#1a1d22" stroke-width="1.2"/><text x="841.0" y="1632.0" font-family="DejaVu Sans, Segoe UI, Arial, sans-serif" font-size="10" fill="#1a1d22" text-anchor="middle" font-weight="normal">Zopakuj krok</text><text x="841.0" y="1646.0" font-family="DejaVu Sans, Segoe UI, Arial, sans-serif" font-size="10" fill="#1a1d22" text-anchor="middle" font-weight="normal">bez volání CEO</text><rect x="186.0" y="1708.0" width="230.0" height="54.0" rx="4" fill="#ffffff" stroke="#1a1d22" stroke-width="1.2"/><text x="301.0" y="1732.0" font-family="DejaVu Sans, Segoe UI, Arial, sans-serif" font-size="10" fill="#1a1d22" text-anchor="middle" font-weight="normal">Nový plán z kontextu</text><text x="301.0" y="1746.0" font-family="DejaVu Sans, Segoe UI, Arial, sans-serif" font-size="10" fill="#1a1d22" text-anchor="middle" font-weight="normal">selhání + vlastní paměti</text><rect x="456.0" y="1808.0" width="230.0" height="54.0" rx="27.0" fill="#eaf5ec" stroke="#1a1d22" stroke-width="1.2"/><text x="571.0" y="1839.0" font-family="DejaVu Sans, Segoe UI, Arial, sans-serif" font-size="10" fill="#1a1d22" text-anchor="middle" font-weight="bold">Konec — úspěch</text><rect x="186.0" y="1808.0" width="230.0" height="54.0" rx="27.0" fill="#fbecec" stroke="#1a1d22" stroke-width="1.2"/><text x="301.0" y="1839.0" font-family="DejaVu Sans, Segoe UI, Arial, sans-serif" font-size="10" fill="#1a1d22" text-anchor="middle" font-weight="bold">Konec — neúspěch</text></svg>